<svg xmlns="http://www.w3.org/2000/svg" viewBox="0 0 100 100" width="100" height="100">
    <defs>
    </defs>
    <path d="M10 90v-55q0 -25 25 -25h55v6h-6v74h-6v-74h-43q-19 0 -19 19v55z" fill="currentColor" />
    <path fill="red" opacity=".5"
        d="M19 34v43h56v-43Z m2 37.80533l10.38448 -31.30532l3.85498 0l11.06694 31.30532l-4.07632 0l-3.15408 -9.48128l-11.30672 0l-2.96963 9.48128l-3.79965 0zm7.80219 -12.85526l9.16712 0l-2.82207 -8.66982q-1.29114 -3.95054 -1.91827 -6.49169q-0.51646 3.01095 -1.45715 5.97919l-2.96963 9.18233l0 -0.00001z m20.84274 12.85526l0 -31.30532l9.31468 0q3.15408 0 4.81412 0.44844q2.32406 0.61927 3.96565 2.2422q2.13961 2.09272 3.20019 5.34924t1.06058 7.44195q0 3.56616 -0.71935 6.32086t-1.84449 4.55913t-2.46239 2.84011t-3.22786 1.56954t-4.34377 0.53386l-9.75735 0l-0.00001 -0.00001zm3.57831 -3.69428l5.77325 0q2.67451 0 4.19622 -0.57656t2.4255 -1.62292q1.2727 -1.47344 1.98283 -3.96121t0.71013 -6.03257q0 -4.91148 -1.39259 -7.54873t-3.38464 -3.53413q-1.4387 -0.64063 -4.62967 -0.64063l-5.68103 0l0 23.91675" />
    <path fill="currentColor" d="M3 7l90 90l4 -4l-90 -90z"/>
</svg>